<mxfile host="app.diagrams.net" modified="2023-02-06T12:32:39.797Z" agent="5.0 (Windows NT 10.0; Win64; x64) AppleWebKit/537.36 (KHTML, like Gecko) Chrome/109.0.0.0 Safari/537.36" etag="sGEnSJ4j6DzpA20BHC8M" version="20.8.16" type="github">
  <diagram id="_bGyzYvbOH0TJDBXZHad" name="第 1 页">
    <mxGraphModel dx="1050" dy="581" grid="1" gridSize="10" guides="1" tooltips="1" connect="1" arrows="1" fold="1" page="1" pageScale="1" pageWidth="827" pageHeight="1169" math="0" shadow="0">
      <root>
        <mxCell id="0" />
        <mxCell id="1" parent="0" />
        <mxCell id="epGtsnR9CcjfY4FaB12g-18" value="" style="rounded=0;whiteSpace=wrap;html=1;dashed=1;strokeWidth=1;" parent="1" vertex="1">
          <mxGeometry x="150" y="490" width="310" height="110" as="geometry" />
        </mxCell>
        <mxCell id="epGtsnR9CcjfY4FaB12g-6" style="edgeStyle=orthogonalEdgeStyle;rounded=0;orthogonalLoop=1;jettySize=auto;html=1;entryX=0.5;entryY=0;entryDx=0;entryDy=0;" parent="1" source="epGtsnR9CcjfY4FaB12g-1" target="epGtsnR9CcjfY4FaB12g-5" edge="1">
          <mxGeometry relative="1" as="geometry" />
        </mxCell>
        <mxCell id="epGtsnR9CcjfY4FaB12g-8" style="edgeStyle=orthogonalEdgeStyle;rounded=0;orthogonalLoop=1;jettySize=auto;html=1;entryX=0.5;entryY=0;entryDx=0;entryDy=0;" parent="1" source="epGtsnR9CcjfY4FaB12g-1" target="epGtsnR9CcjfY4FaB12g-7" edge="1">
          <mxGeometry relative="1" as="geometry" />
        </mxCell>
        <mxCell id="epGtsnR9CcjfY4FaB12g-1" value="网关" style="rounded=1;whiteSpace=wrap;html=1;fillColor=#dae8fc;strokeColor=#6c8ebf;" parent="1" vertex="1">
          <mxGeometry x="290" y="200" width="120" height="60" as="geometry" />
        </mxCell>
        <mxCell id="epGtsnR9CcjfY4FaB12g-10" style="edgeStyle=orthogonalEdgeStyle;rounded=0;orthogonalLoop=1;jettySize=auto;html=1;entryX=0.5;entryY=0;entryDx=0;entryDy=0;" parent="1" source="epGtsnR9CcjfY4FaB12g-5" target="epGtsnR9CcjfY4FaB12g-9" edge="1">
          <mxGeometry relative="1" as="geometry" />
        </mxCell>
        <mxCell id="epGtsnR9CcjfY4FaB12g-5" value="前台服务 A" style="rounded=1;whiteSpace=wrap;html=1;fillColor=#fff2cc;strokeColor=#d6b656;" parent="1" vertex="1">
          <mxGeometry x="170" y="360" width="120" height="60" as="geometry" />
        </mxCell>
        <mxCell id="epGtsnR9CcjfY4FaB12g-12" style="edgeStyle=orthogonalEdgeStyle;rounded=0;orthogonalLoop=1;jettySize=auto;html=1;entryX=0.5;entryY=0;entryDx=0;entryDy=0;exitX=0.5;exitY=1;exitDx=0;exitDy=0;" parent="1" source="epGtsnR9CcjfY4FaB12g-7" target="epGtsnR9CcjfY4FaB12g-17" edge="1">
          <mxGeometry relative="1" as="geometry" />
        </mxCell>
        <mxCell id="epGtsnR9CcjfY4FaB12g-16" value="" style="edgeStyle=orthogonalEdgeStyle;rounded=0;orthogonalLoop=1;jettySize=auto;html=1;exitX=0.5;exitY=1;exitDx=0;exitDy=0;" parent="1" source="epGtsnR9CcjfY4FaB12g-7" target="epGtsnR9CcjfY4FaB12g-15" edge="1">
          <mxGeometry relative="1" as="geometry" />
        </mxCell>
        <mxCell id="epGtsnR9CcjfY4FaB12g-7" value="前台服务 B" style="whiteSpace=wrap;html=1;rounded=1;fillColor=#fff2cc;strokeColor=#d6b656;" parent="1" vertex="1">
          <mxGeometry x="410" y="360" width="120" height="60" as="geometry" />
        </mxCell>
        <mxCell id="epGtsnR9CcjfY4FaB12g-9" value="中台服务 C1" style="rounded=1;whiteSpace=wrap;html=1;fillColor=#e1d5e7;strokeColor=#9673a6;" parent="1" vertex="1">
          <mxGeometry x="170" y="520" width="120" height="60" as="geometry" />
        </mxCell>
        <mxCell id="epGtsnR9CcjfY4FaB12g-15" value="中台服务 D" style="whiteSpace=wrap;html=1;rounded=1;fillColor=#e1d5e7;strokeColor=#9673a6;" parent="1" vertex="1">
          <mxGeometry x="490" y="520" width="120" height="60" as="geometry" />
        </mxCell>
        <mxCell id="epGtsnR9CcjfY4FaB12g-17" value="中台服务 C2" style="rounded=1;whiteSpace=wrap;html=1;fillColor=#e1d5e7;strokeColor=#9673a6;" parent="1" vertex="1">
          <mxGeometry x="320" y="520" width="120" height="60" as="geometry" />
        </mxCell>
        <mxCell id="epGtsnR9CcjfY4FaB12g-19" value="" style="endArrow=classic;html=1;rounded=0;entryX=0.5;entryY=0;entryDx=0;entryDy=0;startArrow=none;" parent="1" target="epGtsnR9CcjfY4FaB12g-1" edge="1">
          <mxGeometry width="50" height="50" relative="1" as="geometry">
            <mxPoint x="350" y="180" as="sourcePoint" />
            <mxPoint x="360" y="120" as="targetPoint" />
          </mxGeometry>
        </mxCell>
        <mxCell id="epGtsnR9CcjfY4FaB12g-20" value="流量" style="text;html=1;strokeColor=none;fillColor=none;align=center;verticalAlign=middle;whiteSpace=wrap;rounded=0;" parent="1" vertex="1">
          <mxGeometry x="320" y="120" width="60" height="30" as="geometry" />
        </mxCell>
        <mxCell id="epGtsnR9CcjfY4FaB12g-28" value="" style="endArrow=none;html=1;rounded=0;entryX=0.5;entryY=0;entryDx=0;entryDy=0;" parent="1" edge="1">
          <mxGeometry width="50" height="50" relative="1" as="geometry">
            <mxPoint x="350" y="150" as="sourcePoint" />
            <mxPoint x="350" y="170" as="targetPoint" />
          </mxGeometry>
        </mxCell>
        <mxCell id="epGtsnR9CcjfY4FaB12g-29" value="" style="pointerEvents=1;verticalLabelPosition=bottom;shadow=0;dashed=0;align=center;html=1;verticalAlign=top;shape=mxgraph.electrical.miscellaneous.circuit_breaker;rounded=1;sketch=0;strokeWidth=1;" parent="1" vertex="1">
          <mxGeometry x="325" y="270" width="50" height="10" as="geometry" />
        </mxCell>
        <mxCell id="epGtsnR9CcjfY4FaB12g-37" value="" style="pointerEvents=1;verticalLabelPosition=bottom;shadow=0;dashed=0;align=center;html=1;verticalAlign=top;shape=mxgraph.electrical.miscellaneous.circuit_breaker;rounded=1;sketch=0;strokeWidth=1;" parent="1" vertex="1">
          <mxGeometry x="110" y="130" width="50" height="10" as="geometry" />
        </mxCell>
        <mxCell id="epGtsnR9CcjfY4FaB12g-38" value="熔断" style="text;html=1;strokeColor=none;fillColor=none;align=center;verticalAlign=middle;whiteSpace=wrap;rounded=0;" parent="1" vertex="1">
          <mxGeometry x="170" y="120" width="50" height="30" as="geometry" />
        </mxCell>
        <mxCell id="epGtsnR9CcjfY4FaB12g-40" value="" style="endArrow=none;html=1;rounded=0;sketch=0;" parent="1" edge="1">
          <mxGeometry width="50" height="50" relative="1" as="geometry">
            <mxPoint x="305" y="580" as="sourcePoint" />
            <mxPoint x="304.5" y="520" as="targetPoint" />
          </mxGeometry>
        </mxCell>
        <mxCell id="epGtsnR9CcjfY4FaB12g-41" value="" style="pointerEvents=1;verticalLabelPosition=bottom;shadow=0;dashed=0;align=center;html=1;verticalAlign=top;shape=mxgraph.electrical.electro-mechanical.limitSwitch2;elSwitchState=off;rounded=1;sketch=0;strokeWidth=1;" parent="1" vertex="1">
          <mxGeometry x="320" y="170" width="60" height="10" as="geometry" />
        </mxCell>
        <mxCell id="epGtsnR9CcjfY4FaB12g-44" value="" style="pointerEvents=1;verticalLabelPosition=bottom;shadow=0;dashed=0;align=center;html=1;verticalAlign=top;shape=mxgraph.electrical.electro-mechanical.limitSwitch2;elSwitchState=off;rounded=1;sketch=0;strokeWidth=1;" parent="1" vertex="1">
          <mxGeometry x="195" y="500" width="60" height="10" as="geometry" />
        </mxCell>
        <mxCell id="epGtsnR9CcjfY4FaB12g-48" value="" style="pointerEvents=1;verticalLabelPosition=bottom;shadow=0;dashed=0;align=center;html=1;verticalAlign=top;shape=mxgraph.electrical.electro-mechanical.limitSwitch2;elSwitchState=off;rounded=1;sketch=0;strokeWidth=1;" parent="1" vertex="1">
          <mxGeometry x="350" y="500" width="60" height="10" as="geometry" />
        </mxCell>
        <mxCell id="epGtsnR9CcjfY4FaB12g-49" value="" style="pointerEvents=1;verticalLabelPosition=bottom;shadow=0;dashed=0;align=center;html=1;verticalAlign=top;shape=mxgraph.electrical.electro-mechanical.limitSwitch2;elSwitchState=off;rounded=1;sketch=0;strokeWidth=1;" parent="1" vertex="1">
          <mxGeometry x="520" y="500" width="60" height="10" as="geometry" />
        </mxCell>
        <mxCell id="epGtsnR9CcjfY4FaB12g-50" value="" style="pointerEvents=1;verticalLabelPosition=bottom;shadow=0;dashed=0;align=center;html=1;verticalAlign=top;shape=mxgraph.electrical.electro-mechanical.limitSwitch2;elSwitchState=off;rounded=1;sketch=0;strokeWidth=1;" parent="1" vertex="1">
          <mxGeometry x="105" y="110" width="60" height="10" as="geometry" />
        </mxCell>
        <mxCell id="epGtsnR9CcjfY4FaB12g-51" value="&lt;span style=&quot;color: rgb(0, 0, 0); font-family: Helvetica; font-size: 12px; font-style: normal; font-variant-ligatures: normal; font-variant-caps: normal; font-weight: 400; letter-spacing: normal; orphans: 2; text-align: center; text-indent: 0px; text-transform: none; widows: 2; word-spacing: 0px; -webkit-text-stroke-width: 0px; background-color: rgb(251, 251, 251); text-decoration-thickness: initial; text-decoration-style: initial; text-decoration-color: initial; float: none; display: inline !important;&quot;&gt;限流&lt;/span&gt;" style="text;whiteSpace=wrap;html=1;" parent="1" vertex="1">
          <mxGeometry x="180" y="100" width="40" height="30" as="geometry" />
        </mxCell>
        <mxCell id="epGtsnR9CcjfY4FaB12g-53" value="&lt;div style=&quot;text-align: center;&quot;&gt;&lt;span style=&quot;background-color: initial;&quot;&gt;隔离&lt;/span&gt;&lt;/div&gt;" style="text;whiteSpace=wrap;html=1;" parent="1" vertex="1">
          <mxGeometry x="290" y="490" width="30" height="30" as="geometry" />
        </mxCell>
      </root>
    </mxGraphModel>
  </diagram>
</mxfile>
